<svg width="40" height="40" viewBox="0 0 40 40" fill="none" xmlns="http://www.w3.org/2000/svg">
<path d="M31.7815 10H4V12.4684H8.30717V21.1652C8.30848 22.3628 8.78483 23.511 9.6317 24.3579C10.4786 25.2047 11.6268 25.681 12.8245 25.6823H28.4984C29.696 25.681 30.8442 25.2047 31.6911 24.3579C32.538 23.511 33.0143 22.3628 33.0156 21.1652L33.9413 12.4684L34.2498 10H31.7815ZM30.5473 21.1652C30.5472 21.7085 30.3313 22.2296 29.947 22.6138C29.5628 22.998 29.0417 23.2139 28.4983 23.2139H12.8245C12.2811 23.2139 11.76 22.998 11.3758 22.6138C10.9915 22.2296 10.7756 21.7085 10.7755 21.1652V12.4684H31.4729L30.5473 21.1652Z" fill="black"/>
<path d="M15.2196 31.7328C16.2222 31.7328 17.035 30.9201 17.035 29.9175C17.035 28.9149 16.2222 28.1022 15.2196 28.1022C14.2171 28.1022 13.4043 28.9149 13.4043 29.9175C13.4043 30.9201 14.2171 31.7328 15.2196 31.7328Z" fill="black"/>
<path d="M26.1029 31.7328C27.1055 31.7328 27.9183 30.9201 27.9183 29.9175C27.9183 28.9149 27.1055 28.1022 26.1029 28.1022C25.1003 28.1022 24.2876 28.9149 24.2876 29.9175C24.2876 30.9201 25.1003 31.7328 26.1029 31.7328Z" fill="black"/>
</svg>
