<svg width="40" height="40" viewBox="0 0 40 40" fill="none" xmlns="http://www.w3.org/2000/svg">
<path d="M20.045 9.3391C23.5086 9.3391 23.9135 9.3391 25.308 9.42907C26.5675 9.47405 27.2422 9.69896 27.692 9.87889C28.3218 10.1038 28.7266 10.4187 29.1765 10.8685C29.6263 11.3183 29.8962 11.7682 30.1661 12.3529C30.346 12.8028 30.5709 13.5225 30.6159 14.782C30.6609 16.1765 30.7059 16.5813 30.7059 20.045C30.7059 23.5086 30.7059 23.9135 30.6159 25.308C30.5709 26.5675 30.346 27.2872 30.1661 27.737C29.9412 28.3668 29.6263 28.7716 29.1765 29.2215C28.7266 29.6713 28.2768 29.9412 27.692 30.2111C27.2422 30.391 26.5225 30.6159 25.263 30.6609C23.8685 30.7059 23.4637 30.7509 20 30.7509C16.5363 30.7509 16.1315 30.7509 14.737 30.6609C13.4775 30.6159 12.7578 30.391 12.308 30.2111C11.6782 29.9862 11.2734 29.6713 10.8235 29.2215C10.3737 28.7716 10.1038 28.3218 9.83391 27.737C9.65398 27.2872 9.42907 26.5675 9.38408 25.308C9.3391 23.9135 9.29412 23.5086 9.29412 20.045C9.29412 16.5813 9.29412 16.1765 9.38408 14.782C9.42907 13.5225 9.65398 12.8028 9.83391 12.3529C10.0588 11.7232 10.3737 11.3183 10.8235 10.8685C11.2734 10.4187 11.7232 10.1488 12.308 9.87889C12.7578 9.69896 13.4775 9.47405 14.737 9.42907C16.1315 9.3391 16.5363 9.3391 20.045 9.3391ZM20.045 7C16.4913 7 16.0415 7 14.6471 7.08997C13.2526 7.13495 12.308 7.35986 11.4983 7.67474C10.6436 8.0346 9.92388 8.48443 9.20415 9.20415C8.48443 9.92388 8.0346 10.6436 7.67474 11.4983C7.35986 12.308 7.13495 13.2526 7.08997 14.6471C7 16.0415 7 16.4913 7 20.045C7 23.5986 7 24.0484 7.08997 25.3979C7.13495 26.7924 7.35986 27.737 7.67474 28.5467C7.98962 29.4014 8.43945 30.1211 9.15917 30.8408C9.87889 31.5606 10.5986 32.0104 11.4533 32.3253C12.263 32.6401 13.2076 32.8651 14.6021 32.91C15.9965 32.955 16.4464 33 19.955 33C23.4637 33 23.9585 33 25.308 32.91C26.7024 32.8651 27.6471 32.6401 28.4567 32.3253C29.3114 32.0104 30.0311 31.5606 30.7509 30.8408C31.4706 30.1211 31.9204 29.4014 32.2353 28.5467C32.5502 27.737 32.7751 26.7924 32.8201 25.3979C32.8651 24.0035 32.91 23.5536 32.91 20.045C32.91 16.5363 32.91 16.0415 32.8201 14.692C32.7751 13.2976 32.5502 12.3529 32.2353 11.5433C31.9204 10.6886 31.4706 9.96886 30.7509 9.24914C30.0311 8.52941 29.3114 8.07958 28.4567 7.76471C27.6471 7.44983 26.7024 7.22491 25.308 7.17993C24.0035 7 23.5536 7 20.045 7Z" fill="black"/>
<path d="M20.0452 13.3425C16.3566 13.3425 13.3428 16.3564 13.3428 20.045C13.3428 23.7335 16.3116 26.7024 20.0452 26.7024C23.7788 26.7024 26.7026 23.7335 26.7026 20.045C26.7026 16.3564 23.7338 13.3425 20.0452 13.3425ZM20.0452 24.3633C17.6611 24.3633 15.6819 22.429 15.6819 20C15.6819 17.6159 17.6161 15.6366 20.0452 15.6366C22.4743 15.6366 24.4085 17.5709 24.4085 20C24.3635 22.429 22.4293 24.3633 20.0452 24.3633Z" fill="black"/>
<path d="M26.9723 14.6471C27.8419 14.6471 28.5467 13.9422 28.5467 13.0727C28.5467 12.2032 27.8419 11.4983 26.9723 11.4983C26.1028 11.4983 25.3979 12.2032 25.3979 13.0727C25.3979 13.9422 26.1028 14.6471 26.9723 14.6471Z" fill="black"/>
</svg>
