<svg width="40" height="40" viewBox="0 0 40 40" fill="none" xmlns="http://www.w3.org/2000/svg">
<path d="M31.6682 29.9006L24.8542 23.0867C26.4091 21.0823 27.1417 18.5607 26.9031 16.0352C26.6644 13.5097 25.4723 11.17 23.5695 9.49242C21.6667 7.81479 19.1961 6.92528 16.6605 7.00492C14.125 7.08456 11.7151 8.12737 9.92132 9.9211C8.12752 11.7148 7.08464 14.1247 7.00493 16.6602C6.92522 19.1957 7.81466 21.6663 9.49224 23.5692C11.1698 25.472 13.5095 26.6642 16.035 26.9029C18.5605 27.1417 21.0821 26.4091 23.0865 24.8543L29.9005 31.6682C30.0166 31.7843 30.1544 31.8764 30.306 31.9392C30.4577 32.002 30.6202 32.0343 30.7844 32.0343C30.9485 32.0343 31.111 32.002 31.2627 31.9392C31.4143 31.8764 31.5521 31.7843 31.6682 31.6682H31.6682C31.7843 31.5522 31.8764 31.4144 31.9392 31.2627C32.002 31.1111 32.0343 30.9486 32.0343 30.7844C32.0343 30.6203 32.002 30.4577 31.9392 30.3061C31.8764 30.1544 31.7843 30.0166 31.6682 29.9006ZM16.9902 24.447C15.5154 24.447 14.0736 24.0097 12.8473 23.1903C11.621 22.371 10.6652 21.2063 10.1008 19.8437C9.53635 18.4812 9.38867 16.9818 9.6764 15.5353C9.96413 14.0888 10.6743 12.76 11.7172 11.7172C12.7601 10.6743 14.0888 9.96406 15.5354 9.67634C16.9819 9.38861 18.4813 9.5363 19.8439 10.1007C21.2065 10.6651 22.3711 11.6209 23.1905 12.8472C24.0099 14.0735 24.4472 15.5153 24.4472 16.9901C24.4448 18.9671 23.6585 20.8625 22.2605 22.2604C20.8626 23.6583 18.9672 24.4447 16.9902 24.447V24.447Z" fill="black"/>
</svg>
