<svg width="40" height="40" viewBox="0 0 40 40" fill="none" xmlns="http://www.w3.org/2000/svg">
<path d="M34.282 12.2385C34.4932 11.5367 34.282 11 33.2684 11H29.8896C29.045 11 28.6226 11.4541 28.4114 11.9495C28.4114 11.9495 26.6798 16.078 24.2302 18.7202C23.4278 19.5046 23.0899 19.7523 22.6676 19.7523C22.4564 19.7523 22.1608 19.5046 22.1608 18.8028V12.2385C22.1608 11.4128 21.9074 11 21.1894 11H15.8256C15.2766 11 14.9809 11.3716 14.9809 11.7431C14.9809 12.5275 16.2057 12.7339 16.3324 14.9633V19.8349C16.3324 20.9083 16.1213 21.1147 15.6989 21.1147C14.5586 21.1147 11.7711 16.9862 10.0817 12.2798C9.74387 11.3716 9.40599 11 8.56131 11H5.18256C4.21117 11 4 11.4541 4 11.9495C4 12.8165 5.14033 17.1927 9.36376 22.9312C12.1512 26.8532 16.1213 29 19.7112 29C21.8651 29 22.1185 28.5459 22.1185 27.7202V24.7477C22.1185 23.7982 22.3297 23.5917 23.0055 23.5917C23.5123 23.5917 24.3569 23.8395 26.3842 25.7385C28.6649 27.9679 29.045 29 30.3542 29H33.733C34.7044 29 35.1689 28.5459 34.9155 27.5963C34.6199 26.6468 33.5218 25.3257 32.0436 23.7156C31.2411 22.8073 30.0586 21.8165 29.7207 21.3211C29.2139 20.7018 29.3406 20.4128 29.7207 19.8349C29.7207 19.8349 33.8597 14.1376 34.282 12.2385Z" fill="black"/>
</svg>
